<svg width="365" height="128" viewBox="0 0 365 128" fill="none" xmlns="http://www.w3.org/2000/svg">
<path d="M105.328 12.8361H118.842C121.094 12.8361 122.82 13.3959 124.02 14.5155C125.232 15.6351 125.837 17.0212 125.837 18.674C125.837 20.0601 125.407 21.249 124.546 22.2406C123.973 22.9017 123.133 23.4242 122.029 23.8081C123.707 24.2133 124.939 24.9117 125.726 25.9033C126.522 26.8843 126.921 28.1211 126.921 29.6139C126.921 30.8295 126.639 31.9224 126.076 32.8927C125.513 33.863 124.743 34.6307 123.765 35.1959C123.16 35.5477 122.246 35.8036 121.025 35.9636C119.399 36.1768 118.321 36.2835 117.79 36.2835H105.328V12.8361ZM112.611 22.0327H115.75C116.876 22.0327 117.657 21.8408 118.093 21.4569C118.539 21.0624 118.762 20.4973 118.762 19.7616C118.762 19.0791 118.539 18.546 118.093 18.1622C117.657 17.7783 116.892 17.5864 115.798 17.5864H112.611V22.0327ZM112.611 31.2453H116.292C117.535 31.2453 118.411 31.0267 118.921 30.5896C119.431 30.1417 119.686 29.5446 119.686 28.7982C119.686 28.1052 119.431 27.5507 118.921 27.1348C118.422 26.7083 117.54 26.4951 116.276 26.4951H112.611V31.2453Z" fill="#5E5D61"/>
<path d="M146.187 12.8361H152.673V17.2665H146.187V12.8361ZM146.187 19.2977H152.673V36.2835H146.187V19.2977Z" fill="#5E5D61"/>
<path d="M171.748 19.2977H187.444V23.1043L178.902 31.8371H187.97V36.2835H171.11V32.061L179.205 23.7441H171.748V19.2977Z" fill="#5E5D61"/>
<path d="M206.551 12.8361H213.036V17.2665H206.551V12.8361ZM206.551 19.2977H213.036V36.2835H206.551V19.2977Z" fill="#5E5D61"/>
<path d="M232.892 19.2977H238.947V21.7768C239.819 20.7425 240.695 20.0068 241.577 19.5696C242.469 19.1325 243.542 18.9139 244.796 18.9139C246.145 18.9139 247.212 19.1538 247.999 19.6336C248.785 20.1134 249.427 20.8278 249.927 21.7768C250.947 20.6679 251.876 19.9162 252.715 19.5217C253.555 19.1165 254.59 18.9139 255.823 18.9139C257.639 18.9139 259.058 19.4577 260.077 20.5453C261.097 21.6222 261.607 23.3123 261.607 25.6154V36.2835H255.106V26.607C255.106 25.8393 254.957 25.2689 254.66 24.8957C254.224 24.3092 253.682 24.016 253.034 24.016C252.269 24.016 251.653 24.2932 251.186 24.8477C250.718 25.4021 250.485 26.2925 250.485 27.5187V36.2835H243.983V26.9269C243.983 26.1805 243.94 25.674 243.855 25.4075C243.717 24.981 243.478 24.6398 243.138 24.3839C242.798 24.1173 242.4 23.984 241.943 23.984C241.2 23.984 240.589 24.2666 240.111 24.8317C239.633 25.3968 239.394 26.3245 239.394 27.6147V36.2835H232.892V19.2977Z" fill="#5E5D61"/>
<mask id="path-2-outside-1" maskUnits="userSpaceOnUse" x="0.901245" y="39.764" width="364" height="83" fill="black">
<rect fill="white" x="0.901245" y="39.764" width="364" height="83"/>
<path d="M2.90125 42.779H58.602V57.4764H39.9137V102.299H21.5895V57.4764H2.90125V42.779Z"/>
<path d="M105.25 84.841H72.242C72.5387 87.4936 73.2533 89.4695 74.3859 90.7687C75.977 92.6363 78.0535 93.5701 80.6154 93.5701C82.2334 93.5701 83.7705 93.1641 85.2267 92.3521C86.1167 91.8378 87.074 90.9311 88.0988 89.6319L104.32 91.1341C101.839 95.4648 98.8452 98.5775 95.3395 100.472C91.8337 102.34 86.8043 103.274 80.2513 103.274C74.5612 103.274 70.0847 102.475 66.8216 100.878C63.5586 99.2542 60.8484 96.6963 58.691 93.2047C56.5606 89.686 55.4954 85.5583 55.4954 80.8216C55.4954 74.0819 57.6393 68.6279 61.9271 64.4596C66.2418 60.2913 72.1881 58.2072 79.7659 58.2072C85.9144 58.2072 90.7685 59.141 94.3282 61.0086C97.8879 62.8762 100.598 65.5829 102.459 69.1287C104.32 72.6745 105.25 77.2894 105.25 82.9734V84.841ZM88.5033 76.924C88.1797 73.7301 87.3167 71.4429 85.9144 70.0625C84.5391 68.6821 82.7188 67.9919 80.4536 67.9919C77.8377 67.9919 75.7478 69.034 74.1837 71.1181C73.1859 72.4173 72.5522 74.3526 72.2825 76.924H88.5033Z"/>
<path d="M107.844 42.779H124.671V73.4729L136.968 59.1816H157.234L141.822 74.2849L158.124 102.299H139.557L130.86 85.0034L124.671 91.0935V102.299H107.844V42.779Z"/>
<path d="M158.736 42.779H175.199V54.0253H158.736V42.779ZM158.736 59.1816H175.199V102.299H158.736V59.1816Z"/>
<path d="M180.907 59.1816H196.319V66.2461C197.802 63.1875 199.326 61.0898 200.89 59.953C202.481 58.7891 204.436 58.2072 206.756 58.2072C209.183 58.2072 211.839 58.9651 214.724 60.4808L209.628 72.2549C207.686 71.4429 206.149 71.0369 205.016 71.0369C202.859 71.0369 201.187 71.9301 200 73.7165C198.301 76.2338 197.452 80.9434 197.452 87.8455V102.299H180.907V59.1816Z"/>
<path d="M260.295 42.779V102.299H244.883V95.9249C242.726 98.6316 240.757 100.459 238.977 101.406C236.604 102.651 233.961 103.274 231.049 103.274C225.197 103.274 220.72 101.041 217.619 96.5745C214.545 92.1085 213.008 86.6816 213.008 80.2938C213.008 73.1481 214.707 67.6806 218.104 63.8912C221.529 60.1019 225.871 58.2072 231.13 58.2072C233.691 58.2072 236.011 58.6403 238.087 59.5064C240.191 60.3725 242.051 61.6717 243.669 63.404V42.779H260.295ZM243.791 80.6186C243.791 77.2352 243.076 74.718 241.647 73.0669C240.218 71.3888 238.411 70.5497 236.226 70.5497C234.312 70.5497 232.707 71.3482 231.413 72.9451C230.118 74.5421 229.471 77.2217 229.471 80.984C229.471 84.5027 230.132 87.0876 231.453 88.7387C232.802 90.3627 234.46 91.1747 236.429 91.1747C238.532 91.1747 240.285 90.3492 241.687 88.6981C243.09 87.047 243.791 84.3538 243.791 80.6186Z"/>
<path d="M280.363 73.1481L264.628 71.4835C265.221 68.7227 266.07 66.5573 267.176 64.9874C268.309 63.3905 269.927 62.0101 272.03 60.8462C273.54 60.0071 275.617 59.3575 278.26 58.8974C280.902 58.4372 283.761 58.2072 286.835 58.2072C291.77 58.2072 295.734 58.4914 298.728 59.0598C301.721 59.6011 304.216 60.7515 306.211 62.5108C307.613 63.7288 308.719 65.4611 309.528 67.7077C310.337 69.9272 310.742 72.0519 310.742 74.0819V93.1235C310.742 95.1535 310.863 96.7505 311.106 97.9144C311.375 99.0512 311.942 100.513 312.805 102.299H297.352C296.732 101.189 296.328 100.35 296.139 99.782C295.95 99.1865 295.761 98.2662 295.573 97.0212C293.415 99.1053 291.271 100.594 289.141 101.487C286.228 102.678 282.844 103.274 278.988 103.274C273.864 103.274 269.967 102.083 267.297 99.7008C264.655 97.3189 263.333 94.3821 263.333 90.8905C263.333 87.6154 264.291 84.9222 266.205 82.811C268.12 80.6998 271.653 79.1299 276.803 78.1014C282.979 76.8563 286.984 75.9902 288.817 75.5029C290.651 74.9887 292.593 74.3255 294.642 73.5135C294.642 71.4835 294.224 70.0625 293.388 69.2505C292.552 68.4385 291.083 68.0325 288.979 68.0325C286.282 68.0325 284.26 68.4655 282.912 69.3317C281.86 70.0084 281.01 71.2805 280.363 73.1481ZM294.642 81.8366C292.377 82.6486 290.017 83.3659 287.563 83.9884C284.219 84.8816 282.102 85.7613 281.213 86.6275C280.296 87.5207 279.837 88.5357 279.837 89.6725C279.837 90.9717 280.282 92.0408 281.172 92.8799C282.089 93.6919 283.424 94.0979 285.177 94.0979C287.011 94.0979 288.709 93.6513 290.274 92.7581C291.865 91.8649 292.984 90.7822 293.631 89.5101C294.305 88.2109 294.642 86.5327 294.642 84.4756V81.8366Z"/>
<path d="M347.191 59.1816H362.603V99.9038L362.643 101.812C362.643 104.519 362.063 107.09 360.904 109.526C359.771 111.989 358.248 113.979 356.333 115.494C354.445 117.01 352.032 118.106 349.092 118.783C346.18 119.46 342.836 119.798 339.06 119.798C330.431 119.798 324.498 118.499 321.262 115.9C318.053 113.302 316.448 109.824 316.448 105.466C316.448 104.925 316.475 104.194 316.529 103.274L332.507 105.101C332.912 106.589 333.532 107.618 334.368 108.186C335.582 109.025 337.105 109.445 338.939 109.445C341.312 109.445 343.079 108.809 344.238 107.537C345.425 106.265 346.018 104.045 346.018 100.878V94.3415C344.4 96.2633 342.782 97.6572 341.164 98.5234C338.629 99.8767 335.892 100.553 332.952 100.553C327.208 100.553 322.57 98.0362 319.037 93.0017C316.529 89.4289 315.275 84.7057 315.275 78.8322C315.275 72.1196 316.893 67.0039 320.129 63.4852C323.366 59.9665 327.599 58.2072 332.831 58.2072C336.175 58.2072 338.926 58.7756 341.083 59.9124C343.267 61.0492 345.303 62.9304 347.191 65.5559V59.1816ZM331.698 80.0908C331.698 83.2035 332.359 85.5177 333.681 87.0335C335.002 88.5221 336.741 89.2665 338.899 89.2665C340.948 89.2665 342.661 88.4951 344.036 86.9523C345.438 85.3824 346.139 83.0276 346.139 79.8878C346.139 76.748 345.411 74.3526 343.955 72.7015C342.499 71.0234 340.719 70.1843 338.616 70.1843C336.512 70.1843 334.827 70.9557 333.559 72.4985C332.319 74.0143 331.698 76.545 331.698 80.0908ZM347.11 41.764H353.785C353.623 44.3354 353.016 46.5007 351.964 48.2601C350.913 49.9924 349.321 51.3863 347.191 52.4419C345.061 53.4975 342.755 54.0253 340.274 54.0253C336.175 54.0253 332.898 52.9562 330.444 50.8179C327.99 48.6526 326.561 45.6346 326.157 41.764H333.114C333.654 43.3339 334.422 44.4572 335.42 45.1339C336.418 45.7835 337.914 46.1083 339.91 46.1083C342.256 46.1083 343.928 45.7835 344.926 45.1339C345.951 44.4572 346.679 43.3339 347.11 41.764Z"/>
</mask>
<path d="M2.90125 42.779H58.602V57.4764H39.9137V102.299H21.5895V57.4764H2.90125V42.779Z" fill="#2076A8"/>
<path d="M2.90125 42.779H58.602V57.4764H39.9137V102.299H21.5895V57.4764H2.90125V42.779Z" fill="url(#paint0_linear)"/>
<path d="M105.25 84.841H72.242C72.5387 87.4936 73.2533 89.4695 74.3859 90.7687C75.977 92.6363 78.0535 93.5701 80.6154 93.5701C82.2334 93.5701 83.7705 93.1641 85.2267 92.3521C86.1167 91.8378 87.074 90.9311 88.0988 89.6319L104.32 91.1341C101.839 95.4648 98.8452 98.5775 95.3395 100.472C91.8337 102.34 86.8043 103.274 80.2513 103.274C74.5612 103.274 70.0847 102.475 66.8216 100.878C63.5586 99.2542 60.8484 96.6963 58.691 93.2047C56.5606 89.686 55.4954 85.5583 55.4954 80.8216C55.4954 74.0819 57.6393 68.6279 61.9271 64.4596C66.2418 60.2913 72.1881 58.2072 79.7659 58.2072C85.9144 58.2072 90.7685 59.141 94.3282 61.0086C97.8879 62.8762 100.598 65.5829 102.459 69.1287C104.32 72.6745 105.25 77.2894 105.25 82.9734V84.841ZM88.5033 76.924C88.1797 73.7301 87.3167 71.4429 85.9144 70.0625C84.5391 68.6821 82.7188 67.9919 80.4536 67.9919C77.8377 67.9919 75.7478 69.034 74.1837 71.1181C73.1859 72.4173 72.5522 74.3526 72.2825 76.924H88.5033Z" fill="#2076A8"/>
<path d="M105.25 84.841H72.242C72.5387 87.4936 73.2533 89.4695 74.3859 90.7687C75.977 92.6363 78.0535 93.5701 80.6154 93.5701C82.2334 93.5701 83.7705 93.1641 85.2267 92.3521C86.1167 91.8378 87.074 90.9311 88.0988 89.6319L104.32 91.1341C101.839 95.4648 98.8452 98.5775 95.3395 100.472C91.8337 102.34 86.8043 103.274 80.2513 103.274C74.5612 103.274 70.0847 102.475 66.8216 100.878C63.5586 99.2542 60.8484 96.6963 58.691 93.2047C56.5606 89.686 55.4954 85.5583 55.4954 80.8216C55.4954 74.0819 57.6393 68.6279 61.9271 64.4596C66.2418 60.2913 72.1881 58.2072 79.7659 58.2072C85.9144 58.2072 90.7685 59.141 94.3282 61.0086C97.8879 62.8762 100.598 65.5829 102.459 69.1287C104.32 72.6745 105.25 77.2894 105.25 82.9734V84.841ZM88.5033 76.924C88.1797 73.7301 87.3167 71.4429 85.9144 70.0625C84.5391 68.6821 82.7188 67.9919 80.4536 67.9919C77.8377 67.9919 75.7478 69.034 74.1837 71.1181C73.1859 72.4173 72.5522 74.3526 72.2825 76.924H88.5033Z" fill="url(#paint1_linear)"/>
<path d="M107.844 42.779H124.671V73.4729L136.968 59.1816H157.234L141.822 74.2849L158.124 102.299H139.557L130.86 85.0034L124.671 91.0935V102.299H107.844V42.779Z" fill="#2076A8"/>
<path d="M107.844 42.779H124.671V73.4729L136.968 59.1816H157.234L141.822 74.2849L158.124 102.299H139.557L130.86 85.0034L124.671 91.0935V102.299H107.844V42.779Z" fill="url(#paint2_linear)"/>
<path d="M158.736 42.779H175.199V54.0253H158.736V42.779ZM158.736 59.1816H175.199V102.299H158.736V59.1816Z" fill="#2076A8"/>
<path d="M158.736 42.779H175.199V54.0253H158.736V42.779ZM158.736 59.1816H175.199V102.299H158.736V59.1816Z" fill="url(#paint3_linear)"/>
<path d="M180.907 59.1816H196.319V66.2461C197.802 63.1875 199.326 61.0898 200.89 59.953C202.481 58.7891 204.436 58.2072 206.756 58.2072C209.183 58.2072 211.839 58.9651 214.724 60.4808L209.628 72.2549C207.686 71.4429 206.149 71.0369 205.016 71.0369C202.859 71.0369 201.187 71.9301 200 73.7165C198.301 76.2338 197.452 80.9434 197.452 87.8455V102.299H180.907V59.1816Z" fill="#2076A8"/>
<path d="M180.907 59.1816H196.319V66.2461C197.802 63.1875 199.326 61.0898 200.89 59.953C202.481 58.7891 204.436 58.2072 206.756 58.2072C209.183 58.2072 211.839 58.9651 214.724 60.4808L209.628 72.2549C207.686 71.4429 206.149 71.0369 205.016 71.0369C202.859 71.0369 201.187 71.9301 200 73.7165C198.301 76.2338 197.452 80.9434 197.452 87.8455V102.299H180.907V59.1816Z" fill="url(#paint4_linear)"/>
<path d="M260.295 42.779V102.299H244.883V95.9249C242.726 98.6316 240.757 100.459 238.977 101.406C236.604 102.651 233.961 103.274 231.049 103.274C225.197 103.274 220.72 101.041 217.619 96.5745C214.545 92.1085 213.008 86.6816 213.008 80.2938C213.008 73.1481 214.707 67.6806 218.104 63.8912C221.529 60.1019 225.871 58.2072 231.13 58.2072C233.691 58.2072 236.011 58.6403 238.087 59.5064C240.191 60.3725 242.051 61.6717 243.669 63.404V42.779H260.295ZM243.791 80.6186C243.791 77.2352 243.076 74.718 241.647 73.0669C240.218 71.3888 238.411 70.5497 236.226 70.5497C234.312 70.5497 232.707 71.3482 231.413 72.9451C230.118 74.5421 229.471 77.2217 229.471 80.984C229.471 84.5027 230.132 87.0876 231.453 88.7387C232.802 90.3627 234.46 91.1747 236.429 91.1747C238.532 91.1747 240.285 90.3492 241.687 88.6981C243.09 87.047 243.791 84.3538 243.791 80.6186Z" fill="#2076A8"/>
<path d="M260.295 42.779V102.299H244.883V95.9249C242.726 98.6316 240.757 100.459 238.977 101.406C236.604 102.651 233.961 103.274 231.049 103.274C225.197 103.274 220.72 101.041 217.619 96.5745C214.545 92.1085 213.008 86.6816 213.008 80.2938C213.008 73.1481 214.707 67.6806 218.104 63.8912C221.529 60.1019 225.871 58.2072 231.13 58.2072C233.691 58.2072 236.011 58.6403 238.087 59.5064C240.191 60.3725 242.051 61.6717 243.669 63.404V42.779H260.295ZM243.791 80.6186C243.791 77.2352 243.076 74.718 241.647 73.0669C240.218 71.3888 238.411 70.5497 236.226 70.5497C234.312 70.5497 232.707 71.3482 231.413 72.9451C230.118 74.5421 229.471 77.2217 229.471 80.984C229.471 84.5027 230.132 87.0876 231.453 88.7387C232.802 90.3627 234.46 91.1747 236.429 91.1747C238.532 91.1747 240.285 90.3492 241.687 88.6981C243.09 87.047 243.791 84.3538 243.791 80.6186Z" fill="url(#paint5_linear)"/>
<path d="M280.363 73.1481L264.628 71.4835C265.221 68.7227 266.07 66.5573 267.176 64.9874C268.309 63.3905 269.927 62.0101 272.03 60.8462C273.54 60.0071 275.617 59.3575 278.26 58.8974C280.902 58.4372 283.761 58.2072 286.835 58.2072C291.77 58.2072 295.734 58.4914 298.728 59.0598C301.721 59.6011 304.216 60.7515 306.211 62.5108C307.613 63.7288 308.719 65.4611 309.528 67.7077C310.337 69.9272 310.742 72.0519 310.742 74.0819V93.1235C310.742 95.1535 310.863 96.7505 311.106 97.9144C311.375 99.0512 311.942 100.513 312.805 102.299H297.352C296.732 101.189 296.328 100.35 296.139 99.782C295.95 99.1865 295.761 98.2662 295.573 97.0212C293.415 99.1053 291.271 100.594 289.141 101.487C286.228 102.678 282.844 103.274 278.988 103.274C273.864 103.274 269.967 102.083 267.297 99.7008C264.655 97.3189 263.333 94.3821 263.333 90.8905C263.333 87.6154 264.291 84.9222 266.205 82.811C268.12 80.6998 271.653 79.1299 276.803 78.1014C282.979 76.8563 286.984 75.9902 288.817 75.5029C290.651 74.9887 292.593 74.3255 294.642 73.5135C294.642 71.4835 294.224 70.0625 293.388 69.2505C292.552 68.4385 291.083 68.0325 288.979 68.0325C286.282 68.0325 284.26 68.4655 282.912 69.3317C281.86 70.0084 281.01 71.2805 280.363 73.1481ZM294.642 81.8366C292.377 82.6486 290.017 83.3659 287.563 83.9884C284.219 84.8816 282.102 85.7613 281.213 86.6275C280.296 87.5207 279.837 88.5357 279.837 89.6725C279.837 90.9717 280.282 92.0408 281.172 92.8799C282.089 93.6919 283.424 94.0979 285.177 94.0979C287.011 94.0979 288.709 93.6513 290.274 92.7581C291.865 91.8649 292.984 90.7822 293.631 89.5101C294.305 88.2109 294.642 86.5327 294.642 84.4756V81.8366Z" fill="#2076A8"/>
<path d="M280.363 73.1481L264.628 71.4835C265.221 68.7227 266.07 66.5573 267.176 64.9874C268.309 63.3905 269.927 62.0101 272.03 60.8462C273.54 60.0071 275.617 59.3575 278.26 58.8974C280.902 58.4372 283.761 58.2072 286.835 58.2072C291.77 58.2072 295.734 58.4914 298.728 59.0598C301.721 59.6011 304.216 60.7515 306.211 62.5108C307.613 63.7288 308.719 65.4611 309.528 67.7077C310.337 69.9272 310.742 72.0519 310.742 74.0819V93.1235C310.742 95.1535 310.863 96.7505 311.106 97.9144C311.375 99.0512 311.942 100.513 312.805 102.299H297.352C296.732 101.189 296.328 100.35 296.139 99.782C295.95 99.1865 295.761 98.2662 295.573 97.0212C293.415 99.1053 291.271 100.594 289.141 101.487C286.228 102.678 282.844 103.274 278.988 103.274C273.864 103.274 269.967 102.083 267.297 99.7008C264.655 97.3189 263.333 94.3821 263.333 90.8905C263.333 87.6154 264.291 84.9222 266.205 82.811C268.12 80.6998 271.653 79.1299 276.803 78.1014C282.979 76.8563 286.984 75.9902 288.817 75.5029C290.651 74.9887 292.593 74.3255 294.642 73.5135C294.642 71.4835 294.224 70.0625 293.388 69.2505C292.552 68.4385 291.083 68.0325 288.979 68.0325C286.282 68.0325 284.26 68.4655 282.912 69.3317C281.86 70.0084 281.01 71.2805 280.363 73.1481ZM294.642 81.8366C292.377 82.6486 290.017 83.3659 287.563 83.9884C284.219 84.8816 282.102 85.7613 281.213 86.6275C280.296 87.5207 279.837 88.5357 279.837 89.6725C279.837 90.9717 280.282 92.0408 281.172 92.8799C282.089 93.6919 283.424 94.0979 285.177 94.0979C287.011 94.0979 288.709 93.6513 290.274 92.7581C291.865 91.8649 292.984 90.7822 293.631 89.5101C294.305 88.2109 294.642 86.5327 294.642 84.4756V81.8366Z" fill="url(#paint6_linear)"/>
<path d="M347.191 59.1816H362.603V99.9038L362.643 101.812C362.643 104.519 362.063 107.09 360.904 109.526C359.771 111.989 358.248 113.979 356.333 115.494C354.445 117.01 352.032 118.106 349.092 118.783C346.18 119.46 342.836 119.798 339.06 119.798C330.431 119.798 324.498 118.499 321.262 115.9C318.053 113.302 316.448 109.824 316.448 105.466C316.448 104.925 316.475 104.194 316.529 103.274L332.507 105.101C332.912 106.589 333.532 107.618 334.368 108.186C335.582 109.025 337.105 109.445 338.939 109.445C341.312 109.445 343.079 108.809 344.238 107.537C345.425 106.265 346.018 104.045 346.018 100.878V94.3415C344.4 96.2633 342.782 97.6572 341.164 98.5234C338.629 99.8767 335.892 100.553 332.952 100.553C327.208 100.553 322.57 98.0362 319.037 93.0017C316.529 89.4289 315.275 84.7057 315.275 78.8322C315.275 72.1196 316.893 67.0039 320.129 63.4852C323.366 59.9665 327.599 58.2072 332.831 58.2072C336.175 58.2072 338.926 58.7756 341.083 59.9124C343.267 61.0492 345.303 62.9304 347.191 65.5559V59.1816ZM331.698 80.0908C331.698 83.2035 332.359 85.5177 333.681 87.0335C335.002 88.5221 336.741 89.2665 338.899 89.2665C340.948 89.2665 342.661 88.4951 344.036 86.9523C345.438 85.3824 346.139 83.0276 346.139 79.8878C346.139 76.748 345.411 74.3526 343.955 72.7015C342.499 71.0234 340.719 70.1843 338.616 70.1843C336.512 70.1843 334.827 70.9557 333.559 72.4985C332.319 74.0143 331.698 76.545 331.698 80.0908ZM347.11 41.764H353.785C353.623 44.3354 353.016 46.5007 351.964 48.2601C350.913 49.9924 349.321 51.3863 347.191 52.4419C345.061 53.4975 342.755 54.0253 340.274 54.0253C336.175 54.0253 332.898 52.9562 330.444 50.8179C327.99 48.6526 326.561 45.6346 326.157 41.764H333.114C333.654 43.3339 334.422 44.4572 335.42 45.1339C336.418 45.7835 337.914 46.1083 339.91 46.1083C342.256 46.1083 343.928 45.7835 344.926 45.1339C345.951 44.4572 346.679 43.3339 347.11 41.764Z" fill="#2076A8"/>
<path d="M347.191 59.1816H362.603V99.9038L362.643 101.812C362.643 104.519 362.063 107.09 360.904 109.526C359.771 111.989 358.248 113.979 356.333 115.494C354.445 117.01 352.032 118.106 349.092 118.783C346.18 119.46 342.836 119.798 339.06 119.798C330.431 119.798 324.498 118.499 321.262 115.9C318.053 113.302 316.448 109.824 316.448 105.466C316.448 104.925 316.475 104.194 316.529 103.274L332.507 105.101C332.912 106.589 333.532 107.618 334.368 108.186C335.582 109.025 337.105 109.445 338.939 109.445C341.312 109.445 343.079 108.809 344.238 107.537C345.425 106.265 346.018 104.045 346.018 100.878V94.3415C344.4 96.2633 342.782 97.6572 341.164 98.5234C338.629 99.8767 335.892 100.553 332.952 100.553C327.208 100.553 322.57 98.0362 319.037 93.0017C316.529 89.4289 315.275 84.7057 315.275 78.8322C315.275 72.1196 316.893 67.0039 320.129 63.4852C323.366 59.9665 327.599 58.2072 332.831 58.2072C336.175 58.2072 338.926 58.7756 341.083 59.9124C343.267 61.0492 345.303 62.9304 347.191 65.5559V59.1816ZM331.698 80.0908C331.698 83.2035 332.359 85.5177 333.681 87.0335C335.002 88.5221 336.741 89.2665 338.899 89.2665C340.948 89.2665 342.661 88.4951 344.036 86.9523C345.438 85.3824 346.139 83.0276 346.139 79.8878C346.139 76.748 345.411 74.3526 343.955 72.7015C342.499 71.0234 340.719 70.1843 338.616 70.1843C336.512 70.1843 334.827 70.9557 333.559 72.4985C332.319 74.0143 331.698 76.545 331.698 80.0908ZM347.11 41.764H353.785C353.623 44.3354 353.016 46.5007 351.964 48.2601C350.913 49.9924 349.321 51.3863 347.191 52.4419C345.061 53.4975 342.755 54.0253 340.274 54.0253C336.175 54.0253 332.898 52.9562 330.444 50.8179C327.99 48.6526 326.561 45.6346 326.157 41.764H333.114C333.654 43.3339 334.422 44.4572 335.42 45.1339C336.418 45.7835 337.914 46.1083 339.91 46.1083C342.256 46.1083 343.928 45.7835 344.926 45.1339C345.951 44.4572 346.679 43.3339 347.11 41.764Z" fill="url(#paint7_linear)"/>
<path d="M2.90125 42.779H58.602V57.4764H39.9137V102.299H21.5895V57.4764H2.90125V42.779Z" stroke="white" stroke-width="4" mask="url(#path-2-outside-1)"/>
<path d="M105.25 84.841H72.242C72.5387 87.4936 73.2533 89.4695 74.3859 90.7687C75.977 92.6363 78.0535 93.5701 80.6154 93.5701C82.2334 93.5701 83.7705 93.1641 85.2267 92.3521C86.1167 91.8378 87.074 90.9311 88.0988 89.6319L104.32 91.1341C101.839 95.4648 98.8452 98.5775 95.3395 100.472C91.8337 102.34 86.8043 103.274 80.2513 103.274C74.5612 103.274 70.0847 102.475 66.8216 100.878C63.5586 99.2542 60.8484 96.6963 58.691 93.2047C56.5606 89.686 55.4954 85.5583 55.4954 80.8216C55.4954 74.0819 57.6393 68.6279 61.9271 64.4596C66.2418 60.2913 72.1881 58.2072 79.7659 58.2072C85.9144 58.2072 90.7685 59.141 94.3282 61.0086C97.8879 62.8762 100.598 65.5829 102.459 69.1287C104.32 72.6745 105.25 77.2894 105.25 82.9734V84.841ZM88.5033 76.924C88.1797 73.7301 87.3167 71.4429 85.9144 70.0625C84.5391 68.6821 82.7188 67.9919 80.4536 67.9919C77.8377 67.9919 75.7478 69.034 74.1837 71.1181C73.1859 72.4173 72.5522 74.3526 72.2825 76.924H88.5033Z" stroke="white" stroke-width="4" mask="url(#path-2-outside-1)"/>
<path d="M107.844 42.779H124.671V73.4729L136.968 59.1816H157.234L141.822 74.2849L158.124 102.299H139.557L130.86 85.0034L124.671 91.0935V102.299H107.844V42.779Z" stroke="white" stroke-width="4" mask="url(#path-2-outside-1)"/>
<path d="M158.736 42.779H175.199V54.0253H158.736V42.779ZM158.736 59.1816H175.199V102.299H158.736V59.1816Z" stroke="white" stroke-width="4" mask="url(#path-2-outside-1)"/>
<path d="M180.907 59.1816H196.319V66.2461C197.802 63.1875 199.326 61.0898 200.89 59.953C202.481 58.7891 204.436 58.2072 206.756 58.2072C209.183 58.2072 211.839 58.9651 214.724 60.4808L209.628 72.2549C207.686 71.4429 206.149 71.0369 205.016 71.0369C202.859 71.0369 201.187 71.9301 200 73.7165C198.301 76.2338 197.452 80.9434 197.452 87.8455V102.299H180.907V59.1816Z" stroke="white" stroke-width="4" mask="url(#path-2-outside-1)"/>
<path d="M260.295 42.779V102.299H244.883V95.9249C242.726 98.6316 240.757 100.459 238.977 101.406C236.604 102.651 233.961 103.274 231.049 103.274C225.197 103.274 220.72 101.041 217.619 96.5745C214.545 92.1085 213.008 86.6816 213.008 80.2938C213.008 73.1481 214.707 67.6806 218.104 63.8912C221.529 60.1019 225.871 58.2072 231.13 58.2072C233.691 58.2072 236.011 58.6403 238.087 59.5064C240.191 60.3725 242.051 61.6717 243.669 63.404V42.779H260.295ZM243.791 80.6186C243.791 77.2352 243.076 74.718 241.647 73.0669C240.218 71.3888 238.411 70.5497 236.226 70.5497C234.312 70.5497 232.707 71.3482 231.413 72.9451C230.118 74.5421 229.471 77.2217 229.471 80.984C229.471 84.5027 230.132 87.0876 231.453 88.7387C232.802 90.3627 234.46 91.1747 236.429 91.1747C238.532 91.1747 240.285 90.3492 241.687 88.6981C243.09 87.047 243.791 84.3538 243.791 80.6186Z" stroke="white" stroke-width="4" mask="url(#path-2-outside-1)"/>
<path d="M280.363 73.1481L264.628 71.4835C265.221 68.7227 266.07 66.5573 267.176 64.9874C268.309 63.3905 269.927 62.0101 272.03 60.8462C273.54 60.0071 275.617 59.3575 278.26 58.8974C280.902 58.4372 283.761 58.2072 286.835 58.2072C291.77 58.2072 295.734 58.4914 298.728 59.0598C301.721 59.6011 304.216 60.7515 306.211 62.5108C307.613 63.7288 308.719 65.4611 309.528 67.7077C310.337 69.9272 310.742 72.0519 310.742 74.0819V93.1235C310.742 95.1535 310.863 96.7505 311.106 97.9144C311.375 99.0512 311.942 100.513 312.805 102.299H297.352C296.732 101.189 296.328 100.35 296.139 99.782C295.95 99.1865 295.761 98.2662 295.573 97.0212C293.415 99.1053 291.271 100.594 289.141 101.487C286.228 102.678 282.844 103.274 278.988 103.274C273.864 103.274 269.967 102.083 267.297 99.7008C264.655 97.3189 263.333 94.3821 263.333 90.8905C263.333 87.6154 264.291 84.9222 266.205 82.811C268.12 80.6998 271.653 79.1299 276.803 78.1014C282.979 76.8563 286.984 75.9902 288.817 75.5029C290.651 74.9887 292.593 74.3255 294.642 73.5135C294.642 71.4835 294.224 70.0625 293.388 69.2505C292.552 68.4385 291.083 68.0325 288.979 68.0325C286.282 68.0325 284.26 68.4655 282.912 69.3317C281.86 70.0084 281.01 71.2805 280.363 73.1481ZM294.642 81.8366C292.377 82.6486 290.017 83.3659 287.563 83.9884C284.219 84.8816 282.102 85.7613 281.213 86.6275C280.296 87.5207 279.837 88.5357 279.837 89.6725C279.837 90.9717 280.282 92.0408 281.172 92.8799C282.089 93.6919 283.424 94.0979 285.177 94.0979C287.011 94.0979 288.709 93.6513 290.274 92.7581C291.865 91.8649 292.984 90.7822 293.631 89.5101C294.305 88.2109 294.642 86.5327 294.642 84.4756V81.8366Z" stroke="white" stroke-width="4" mask="url(#path-2-outside-1)"/>
<path d="M347.191 59.1816H362.603V99.9038L362.643 101.812C362.643 104.519 362.063 107.09 360.904 109.526C359.771 111.989 358.248 113.979 356.333 115.494C354.445 117.01 352.032 118.106 349.092 118.783C346.18 119.46 342.836 119.798 339.06 119.798C330.431 119.798 324.498 118.499 321.262 115.9C318.053 113.302 316.448 109.824 316.448 105.466C316.448 104.925 316.475 104.194 316.529 103.274L332.507 105.101C332.912 106.589 333.532 107.618 334.368 108.186C335.582 109.025 337.105 109.445 338.939 109.445C341.312 109.445 343.079 108.809 344.238 107.537C345.425 106.265 346.018 104.045 346.018 100.878V94.3415C344.4 96.2633 342.782 97.6572 341.164 98.5234C338.629 99.8767 335.892 100.553 332.952 100.553C327.208 100.553 322.57 98.0362 319.037 93.0017C316.529 89.4289 315.275 84.7057 315.275 78.8322C315.275 72.1196 316.893 67.0039 320.129 63.4852C323.366 59.9665 327.599 58.2072 332.831 58.2072C336.175 58.2072 338.926 58.7756 341.083 59.9124C343.267 61.0492 345.303 62.9304 347.191 65.5559V59.1816ZM331.698 80.0908C331.698 83.2035 332.359 85.5177 333.681 87.0335C335.002 88.5221 336.741 89.2665 338.899 89.2665C340.948 89.2665 342.661 88.4951 344.036 86.9523C345.438 85.3824 346.139 83.0276 346.139 79.8878C346.139 76.748 345.411 74.3526 343.955 72.7015C342.499 71.0234 340.719 70.1843 338.616 70.1843C336.512 70.1843 334.827 70.9557 333.559 72.4985C332.319 74.0143 331.698 76.545 331.698 80.0908ZM347.11 41.764H353.785C353.623 44.3354 353.016 46.5007 351.964 48.2601C350.913 49.9924 349.321 51.3863 347.191 52.4419C345.061 53.4975 342.755 54.0253 340.274 54.0253C336.175 54.0253 332.898 52.9562 330.444 50.8179C327.99 48.6526 326.561 45.6346 326.157 41.764H333.114C333.654 43.3339 334.422 44.4572 335.42 45.1339C336.418 45.7835 337.914 46.1083 339.91 46.1083C342.256 46.1083 343.928 45.7835 344.926 45.1339C345.951 44.4572 346.679 43.3339 347.11 41.764Z" stroke="white" stroke-width="4" mask="url(#path-2-outside-1)"/>
<path d="M25.5108 123.465L22.6425 114.057H24.284L25.7756 119.487L26.3316 121.507C26.3551 121.406 26.5169 120.76 26.817 119.567L28.3085 114.057H29.9413L31.3445 119.514L31.8123 121.312L32.3507 119.496L33.9569 114.057H35.5014L32.5713 123.465H30.9209L29.4294 117.831L29.0675 116.227L27.17 123.465H25.5108Z" fill="#3E3F41"/>
<path d="M43.6337 123.465L40.7654 114.057H42.4069L43.8985 119.487L44.4545 121.507C44.478 121.406 44.6398 120.76 44.9399 119.567L46.4314 114.057H48.0642L49.4674 119.514L49.9352 121.312L50.4736 119.496L52.0798 114.057H53.6243L50.6942 123.465H49.0438L47.5523 117.831L47.1904 116.227L45.2929 123.465H43.6337Z" fill="#3E3F41"/>
<path d="M61.7566 123.465L58.8883 114.057H60.5298L62.0214 119.487L62.5774 121.507C62.6009 121.406 62.7627 120.76 63.0628 119.567L64.5543 114.057H66.1871L67.5903 119.514L68.0581 121.312L68.5965 119.496L70.2027 114.057H71.7472L68.8171 123.465H67.1667L65.6752 117.831L65.3133 116.227L63.4158 123.465H61.7566Z" fill="#3E3F41"/>
<path d="M77.5937 123.465V121.649H79.4029V123.465H77.5937Z" fill="#3E3F41"/>
<path d="M88.7002 123.465H87.2263V110.478H88.8149V115.111C89.4857 114.267 90.3418 113.844 91.3832 113.844C91.9598 113.844 92.5041 113.963 93.0159 114.199C93.5337 114.429 93.9573 114.757 94.2868 115.182C94.6222 115.601 94.884 116.109 95.0723 116.706C95.2606 117.302 95.3547 117.94 95.3547 118.619C95.3547 120.231 94.9576 121.477 94.1633 122.357C93.369 123.237 92.4158 123.677 91.3038 123.677C90.1976 123.677 89.3298 123.214 88.7002 122.286V123.465ZM88.6826 118.69C88.6826 119.818 88.8355 120.633 89.1415 121.135C89.6416 121.956 90.3182 122.366 91.1714 122.366C91.8657 122.366 92.4658 122.065 92.9718 121.463C93.4778 120.854 93.7308 119.951 93.7308 118.752C93.7308 117.524 93.4866 116.617 92.9983 116.032C92.5158 115.448 91.9304 115.156 91.242 115.156C90.5477 115.156 89.9476 115.46 89.4416 116.068C88.9356 116.67 88.6826 117.544 88.6826 118.69Z" fill="#3E3F41"/>
<path d="M102.366 112.312V110.478H103.955V112.312H102.366ZM102.366 123.465V114.057H103.955V123.465H102.366Z" fill="#3E3F41"/>
<path d="M110.604 123.465V122.171L116.57 115.297C115.894 115.333 115.297 115.35 114.779 115.35H110.957V114.057H118.618V115.111L113.543 121.082L112.564 122.171C113.276 122.118 113.943 122.092 114.567 122.092H118.9V123.465H110.604Z" fill="#3E3F41"/>
<path d="M125.55 112.312V110.478H127.139V112.312H125.55ZM125.55 123.465V114.057H127.139V123.465H125.55Z" fill="#3E3F41"/>
<path d="M134.627 123.465V114.057H136.048V115.377C136.342 114.916 136.733 114.547 137.221 114.27C137.71 113.986 138.266 113.844 138.889 113.844C139.584 113.844 140.152 113.989 140.593 114.279C141.04 114.568 141.355 114.972 141.537 115.492C142.278 114.394 143.243 113.844 144.432 113.844C145.362 113.844 146.076 114.104 146.577 114.624C147.077 115.138 147.327 115.932 147.327 117.007V123.465H145.747V117.538C145.747 116.901 145.694 116.443 145.588 116.165C145.488 115.882 145.303 115.655 145.032 115.483C144.761 115.312 144.444 115.226 144.079 115.226C143.42 115.226 142.873 115.448 142.437 115.891C142.002 116.328 141.784 117.031 141.784 117.999V123.465H140.196V117.352C140.196 116.644 140.066 116.112 139.807 115.758C139.548 115.404 139.125 115.226 138.536 115.226C138.089 115.226 137.674 115.344 137.292 115.581C136.915 115.817 136.642 116.162 136.471 116.617C136.301 117.072 136.215 117.727 136.215 118.584V123.465H134.627Z" fill="#3E3F41"/>
<path d="M158.213 122.038L158.442 123.447C157.995 123.541 157.595 123.589 157.242 123.589C156.665 123.589 156.218 123.497 155.9 123.314C155.583 123.131 155.359 122.892 155.23 122.596C155.1 122.295 155.035 121.666 155.035 120.71V115.297H153.87V114.057H155.035V111.727L156.615 110.771V114.057H158.213V115.297H156.615V120.798C156.615 121.253 156.642 121.545 156.695 121.675C156.753 121.805 156.845 121.908 156.968 121.985C157.098 122.062 157.28 122.1 157.515 122.1C157.692 122.1 157.924 122.08 158.213 122.038Z" fill="#3E3F41"/>
<path d="M171.252 120.435L172.894 120.639C172.635 121.601 172.155 122.348 171.455 122.88C170.755 123.411 169.86 123.677 168.772 123.677C167.401 123.677 166.313 123.255 165.506 122.41C164.706 121.56 164.306 120.37 164.306 118.841C164.306 117.258 164.712 116.03 165.524 115.156C166.336 114.281 167.389 113.844 168.684 113.844C169.937 113.844 170.961 114.273 171.755 115.129C172.549 115.985 172.947 117.19 172.947 118.743C172.947 118.838 172.944 118.979 172.938 119.168H165.948C166.007 120.202 166.298 120.993 166.822 121.542C167.345 122.092 167.998 122.366 168.781 122.366C169.363 122.366 169.86 122.213 170.272 121.906C170.684 121.598 171.011 121.108 171.252 120.435ZM166.036 117.857H171.27C171.199 117.066 170.999 116.472 170.669 116.077C170.163 115.463 169.507 115.156 168.701 115.156C167.972 115.156 167.357 115.401 166.857 115.891C166.363 116.381 166.089 117.036 166.036 117.857Z" fill="#3E3F41"/>
<path d="M179.967 123.465V110.478H181.555V117.884L185.315 114.057H187.371L183.788 117.547L187.733 123.465H185.774L182.676 118.655L181.555 119.735V123.465H179.967Z" fill="#3E3F41"/>
<path d="M194.065 112.312V110.478H195.654V112.312H194.065ZM194.065 123.465V114.057H195.654V123.465H194.065Z" fill="#3E3F41"/>
<path d="M203.124 123.465V114.057H204.554V115.483C204.919 114.816 205.254 114.376 205.56 114.163C205.872 113.951 206.213 113.844 206.584 113.844C207.119 113.844 207.663 114.016 208.217 114.358L207.669 115.838C207.281 115.607 206.893 115.492 206.504 115.492C206.157 115.492 205.845 115.598 205.569 115.811C205.292 116.018 205.095 116.307 204.978 116.679C204.801 117.246 204.713 117.866 204.713 118.539V123.465H203.124Z" fill="#3E3F41"/>
<path d="M220.303 123.465V122.278C219.708 123.211 218.835 123.677 217.682 123.677C216.934 123.677 216.246 123.47 215.616 123.057C214.993 122.644 214.507 122.068 214.16 121.33C213.819 120.586 213.648 119.732 213.648 118.77C213.648 117.831 213.804 116.98 214.116 116.219C214.428 115.451 214.896 114.863 215.519 114.456C216.143 114.048 216.84 113.844 217.611 113.844C218.176 113.844 218.679 113.966 219.12 114.208C219.561 114.444 219.92 114.754 220.197 115.138V110.478H221.777V123.465H220.303ZM215.281 118.77C215.281 119.974 215.534 120.875 216.04 121.471C216.546 122.068 217.143 122.366 217.832 122.366C218.526 122.366 219.114 122.083 219.597 121.516C220.085 120.943 220.329 120.072 220.329 118.903C220.329 117.615 220.082 116.67 219.588 116.068C219.094 115.466 218.485 115.164 217.761 115.164C217.055 115.164 216.464 115.454 215.987 116.032C215.516 116.611 215.281 117.524 215.281 118.77Z" fill="#3E3F41"/>
<path d="M235.46 122.304C234.872 122.806 234.304 123.16 233.757 123.367C233.216 123.574 232.633 123.677 232.009 123.677C230.98 123.677 230.188 123.426 229.635 122.924C229.082 122.416 228.806 121.77 228.806 120.984C228.806 120.524 228.909 120.104 229.115 119.726C229.326 119.343 229.6 119.035 229.935 118.805C230.277 118.575 230.659 118.401 231.083 118.282C231.395 118.2 231.865 118.12 232.495 118.043C233.777 117.89 234.722 117.707 235.328 117.494C235.334 117.276 235.337 117.137 235.337 117.078C235.337 116.428 235.187 115.97 234.887 115.705C234.481 115.344 233.878 115.164 233.077 115.164C232.33 115.164 231.777 115.297 231.418 115.563C231.065 115.823 230.803 116.286 230.633 116.954L229.079 116.741C229.221 116.074 229.453 115.536 229.777 115.129C230.1 114.716 230.568 114.4 231.18 114.181C231.792 113.957 232.501 113.844 233.307 113.844C234.107 113.844 234.757 113.939 235.257 114.128C235.757 114.317 236.125 114.556 236.36 114.845C236.596 115.129 236.761 115.489 236.855 115.926C236.908 116.198 236.934 116.688 236.934 117.397V119.523C236.934 121.005 236.966 121.944 237.031 122.34C237.102 122.729 237.237 123.104 237.437 123.465H235.778C235.613 123.134 235.507 122.747 235.46 122.304ZM235.328 118.743C234.751 118.979 233.886 119.18 232.733 119.345C232.08 119.44 231.618 119.546 231.347 119.664C231.077 119.782 230.868 119.957 230.721 120.187C230.574 120.411 230.5 120.662 230.5 120.94C230.5 121.365 230.659 121.719 230.977 122.003C231.3 122.286 231.771 122.428 232.389 122.428C233.001 122.428 233.545 122.295 234.022 122.03C234.498 121.758 234.848 121.389 235.072 120.922C235.243 120.562 235.328 120.031 235.328 119.328V118.743Z" fill="#3E3F41"/>
<path d="M244.175 124.244L245.72 124.474C245.784 124.953 245.964 125.301 246.258 125.52C246.652 125.815 247.19 125.963 247.873 125.963C248.608 125.963 249.176 125.815 249.576 125.52C249.976 125.224 250.247 124.811 250.388 124.28C250.471 123.955 250.509 123.273 250.503 122.233C249.809 123.054 248.944 123.465 247.908 123.465C246.62 123.465 245.622 122.998 244.916 122.065C244.21 121.132 243.857 120.013 243.857 118.708C243.857 117.81 244.019 116.983 244.343 116.227C244.666 115.466 245.134 114.878 245.746 114.465C246.364 114.051 247.087 113.844 247.917 113.844C249.023 113.844 249.935 114.293 250.653 115.191V114.057H252.118V122.189C252.118 123.654 251.968 124.69 251.668 125.298C251.374 125.912 250.903 126.397 250.256 126.751C249.615 127.105 248.823 127.282 247.882 127.282C246.764 127.282 245.861 127.029 245.172 126.521C244.484 126.019 244.151 125.26 244.175 124.244ZM245.49 118.593C245.49 119.827 245.734 120.727 246.223 121.294C246.711 121.861 247.323 122.145 248.058 122.145C248.788 122.145 249.4 121.864 249.894 121.303C250.388 120.736 250.635 119.85 250.635 118.646C250.635 117.494 250.379 116.626 249.868 116.041C249.362 115.457 248.75 115.164 248.032 115.164C247.326 115.164 246.726 115.454 246.231 116.032C245.737 116.605 245.49 117.459 245.49 118.593Z" fill="#3E3F41"/>
<path d="M260.039 123.465V121.649H261.848V123.465H260.039Z" fill="#3E3F41"/>
<path d="M275.796 120.019L277.358 120.222C277.188 121.303 276.749 122.151 276.043 122.765C275.343 123.373 274.481 123.677 273.457 123.677C272.175 123.677 271.142 123.258 270.36 122.419C269.583 121.575 269.195 120.367 269.195 118.796C269.195 117.781 269.362 116.892 269.698 116.13C270.033 115.368 270.542 114.798 271.225 114.42C271.913 114.036 272.66 113.844 273.466 113.844C274.484 113.844 275.317 114.104 275.964 114.624C276.611 115.138 277.026 115.87 277.208 116.821L275.664 117.06C275.517 116.428 275.255 115.953 274.878 115.634C274.508 115.315 274.058 115.156 273.528 115.156C272.728 115.156 272.078 115.445 271.578 116.024C271.077 116.596 270.827 117.506 270.827 118.752C270.827 120.016 271.069 120.934 271.551 121.507C272.034 122.08 272.663 122.366 273.44 122.366C274.063 122.366 274.584 122.174 275.002 121.79C275.42 121.406 275.684 120.816 275.796 120.019Z" fill="#3E3F41"/>
<path d="M283.187 118.761C283.187 117.019 283.67 115.728 284.635 114.89C285.441 114.193 286.423 113.844 287.582 113.844C288.871 113.844 289.924 114.27 290.742 115.12C291.56 115.965 291.969 117.134 291.969 118.628C291.969 119.839 291.786 120.792 291.421 121.489C291.063 122.18 290.536 122.718 289.842 123.101C289.153 123.485 288.4 123.677 287.582 123.677C286.27 123.677 285.208 123.255 284.396 122.41C283.59 121.566 283.187 120.349 283.187 118.761ZM284.82 118.761C284.82 119.966 285.082 120.869 285.605 121.471C286.129 122.068 286.788 122.366 287.582 122.366C288.371 122.366 289.027 122.065 289.55 121.463C290.074 120.86 290.336 119.942 290.336 118.708C290.336 117.544 290.071 116.664 289.542 116.068C289.018 115.466 288.365 115.164 287.582 115.164C286.788 115.164 286.129 115.463 285.605 116.059C285.082 116.656 284.82 117.556 284.82 118.761Z" fill="#3E3F41"/>
<path d="M298.901 123.465V114.057H300.322V115.377C300.616 114.916 301.007 114.547 301.495 114.27C301.984 113.986 302.54 113.844 303.163 113.844C303.858 113.844 304.425 113.989 304.867 114.279C305.314 114.568 305.629 114.972 305.811 115.492C306.552 114.394 307.517 113.844 308.706 113.844C309.636 113.844 310.35 114.104 310.851 114.624C311.351 115.138 311.601 115.932 311.601 117.007V123.465H310.021V117.538C310.021 116.901 309.968 116.443 309.862 116.165C309.762 115.882 309.577 115.655 309.306 115.483C309.035 115.312 308.718 115.226 308.353 115.226C307.694 115.226 307.147 115.448 306.711 115.891C306.276 116.328 306.058 117.031 306.058 117.999V123.465H304.47V117.352C304.47 116.644 304.34 116.112 304.081 115.758C303.822 115.404 303.399 115.226 302.81 115.226C302.363 115.226 301.948 115.344 301.566 115.581C301.189 115.817 300.916 116.162 300.745 116.617C300.575 117.072 300.489 117.727 300.489 118.584V123.465H298.901Z" fill="#3E3F41"/>
<defs>
<linearGradient id="paint0_linear" x1="182" y1="10.5827" x2="182" y2="128" gradientUnits="userSpaceOnUse">
<stop stop-color="#5EA7D5"/>
<stop offset="1" stop-color="white" stop-opacity="0"/>
</linearGradient>
<linearGradient id="paint1_linear" x1="182" y1="10.5827" x2="182" y2="128" gradientUnits="userSpaceOnUse">
<stop stop-color="#5EA7D5"/>
<stop offset="1" stop-color="white" stop-opacity="0"/>
</linearGradient>
<linearGradient id="paint2_linear" x1="182" y1="10.5827" x2="182" y2="128" gradientUnits="userSpaceOnUse">
<stop stop-color="#5EA7D5"/>
<stop offset="1" stop-color="white" stop-opacity="0"/>
</linearGradient>
<linearGradient id="paint3_linear" x1="182" y1="10.5827" x2="182" y2="128" gradientUnits="userSpaceOnUse">
<stop stop-color="#5EA7D5"/>
<stop offset="1" stop-color="white" stop-opacity="0"/>
</linearGradient>
<linearGradient id="paint4_linear" x1="182" y1="10.5827" x2="182" y2="128" gradientUnits="userSpaceOnUse">
<stop stop-color="#5EA7D5"/>
<stop offset="1" stop-color="white" stop-opacity="0"/>
</linearGradient>
<linearGradient id="paint5_linear" x1="182" y1="10.5827" x2="182" y2="128" gradientUnits="userSpaceOnUse">
<stop stop-color="#5EA7D5"/>
<stop offset="1" stop-color="white" stop-opacity="0"/>
</linearGradient>
<linearGradient id="paint6_linear" x1="182" y1="10.5827" x2="182" y2="128" gradientUnits="userSpaceOnUse">
<stop stop-color="#5EA7D5"/>
<stop offset="1" stop-color="white" stop-opacity="0"/>
</linearGradient>
<linearGradient id="paint7_linear" x1="182" y1="10.5827" x2="182" y2="128" gradientUnits="userSpaceOnUse">
<stop stop-color="#5EA7D5"/>
<stop offset="1" stop-color="white" stop-opacity="0"/>
</linearGradient>
</defs>
</svg>
